<svg width="60.4" height="65.1" viewBox="0 0 60.4 65.1" xmlns="http://www.w3.org/2000/svg"><g id="svgGroup" stroke-linecap="round" fill-rule="evenodd" font-size="9pt" stroke="#FF7315" stroke-width="0.25mm" fill="#FF7315" style="stroke:#FF7315;stroke-width:0.25mm;fill:#FF7315"><path d="M 60.4 0.3 L 60.4 3.1 L 55.6 20.5 Q 54.6 22.4 54.05 24.5 A 58.606 58.606 0 0 0 53.63 26.216 Q 53.453 26.989 53.27 27.86 A 121.6 121.6 0 0 0 52.9 29.7 Q 52.7 31.1 52.1 33.9 A 16.901 16.901 0 0 1 51.887 34.823 Q 51.765 35.291 51.609 35.803 A 28.714 28.714 0 0 1 51.5 36.15 Q 51.1 37.4 50.7 38.7 Q 48.684 45.572 48.515 46.483 A 0.754 0.754 0 0 0 48.5 46.6 L 46.5 50.9 Q 46.6 51 45 54.7 A 146.917 146.917 0 0 1 43 59.13 A 122.739 122.739 0 0 1 41.8 61.6 A 34.543 34.543 0 0 1 41.228 62.698 Q 40.366 64.276 39.787 64.831 A 1.208 1.208 0 0 1 39.4 65.1 A 1.556 1.556 0 0 1 39.185 65.086 Q 38.93 65.051 38.806 64.922 A 0.395 0.395 0 0 1 38.75 64.85 A 0.783 0.783 0 0 1 38.674 64.671 Q 38.619 64.485 38.605 64.203 A 4.089 4.089 0 0 1 38.6 64 Q 38.6 63.045 38.902 62.353 A 2.878 2.878 0 0 1 39 62.15 Q 39.4 61.4 40.2 60.1 Q 41 59 41.4 58.1 A 4.51 4.51 0 0 0 41.723 56.993 A 6.143 6.143 0 0 0 41.8 56 A 1.795 1.795 0 0 1 41.579 56.221 Q 40.839 56.877 37.9 59 A 202.148 202.148 0 0 0 36.869 59.755 Q 33.5 62.238 33.5 62.5 L 36.9 62.4 Q 37.5 62.4 37.5 63.1 A 0.644 0.644 0 0 1 37.258 63.582 Q 36.762 64.031 35.25 64.3 Q 33 64.7 31.5 64.7 A 0.532 0.532 0 0 0 31.428 64.555 Q 31.316 64.4 31.1 64.4 A 0.217 0.217 0 0 0 31.045 64.411 Q 30.916 64.448 30.567 64.617 A 16.46 16.46 0 0 0 30.4 64.7 L 28.7 64.8 A 12.118 12.118 0 0 1 25.615 64.428 A 8.663 8.663 0 0 1 21.55 62.1 A 10.375 10.375 0 0 1 18.978 57.567 A 14.506 14.506 0 0 1 18.5 54.9 L 14.9 45 Q 14.59 44.225 13.919 42.968 A 52.753 52.753 0 0 0 13.5 42.2 A 46.988 46.988 0 0 1 12.878 41.054 Q 12.026 39.429 11.8 38.6 Q 11.429 38.044 11.059 36.287 A 28.101 28.101 0 0 1 11 36 A 2.769 2.769 0 0 1 10.951 35.833 Q 10.879 35.555 10.77 35.009 A 44.353 44.353 0 0 1 10.7 34.65 A 5.932 5.932 0 0 0 10.625 34.307 Q 10.502 33.821 10.347 33.669 A 0.21 0.21 0 0 0 10.2 33.6 L 7.8 26.8 A 3.141 3.141 0 0 0 7.713 26.459 Q 7.473 25.65 6.615 23.387 A 234.513 234.513 0 0 0 6.2 22.3 L 5 19.3 A 2.968 2.968 0 0 0 4.924 19.023 Q 4.72 18.371 4.027 16.585 A 196.943 196.943 0 0 0 3.7 15.75 A 73.288 73.288 0 0 1 3.289 14.682 Q 2.481 12.531 2.4 11.8 Q 1.3 8.5 1.1 5.6 Q 0.7 2.7 0.3 1.5 L 0.4 0.9 A 0.597 0.597 0 0 0 0.368 0.699 Q 0.306 0.525 0.123 0.442 A 0.726 0.726 0 0 0 0 0.4 L 2.4 0 Q 3.489 0.396 5.361 0.4 A 17.958 17.958 0 0 0 5.4 0.4 L 8.3 0.3 A 31.433 31.433 0 0 1 9.654 0.327 Q 12.604 0.455 12.953 1.191 A 0.481 0.481 0 0 1 13 1.4 Q 13 2.5 13.5 3.45 A 9.84 9.84 0 0 0 14.014 4.31 Q 14.299 4.738 14.655 5.194 A 17.814 17.814 0 0 0 14.9 5.5 A 18.481 18.481 0 0 1 15.58 6.44 Q 16.088 7.194 16.4 7.85 A 5.038 5.038 0 0 1 16.817 9.22 A 6.771 6.771 0 0 1 16.9 10.3 L 18.9 16.5 A 1.548 1.548 0 0 0 19.003 17.039 Q 19.084 17.255 19.226 17.483 A 3.633 3.633 0 0 0 19.45 17.8 Q 20 18.5 20.1 18.9 Q 22 26.3 24.85 33.65 Q 27.018 39.241 29.099 43.357 A 62.729 62.729 0 0 0 30.4 45.8 Q 31.4 46.4 31.7 46.75 A 1.102 1.102 0 0 1 31.902 47.115 Q 32 47.401 32 47.8 A 3.307 3.307 0 0 1 31.908 48.598 A 2.406 2.406 0 0 1 31.4 49.6 Q 30.827 50.268 29.708 51.118 A 21.88 21.88 0 0 1 29.6 51.2 A 23.212 23.212 0 0 0 28.961 51.68 Q 28.333 52.171 27.927 52.573 A 6.905 6.905 0 0 0 27.9 52.6 A 2.414 2.414 0 0 0 27.212 54.002 A 3.028 3.028 0 0 0 27.2 54.1 A 10.999 10.999 0 0 1 27.36 53.996 Q 27.618 53.83 28.091 53.54 A 129.696 129.696 0 0 1 28.4 53.35 A 9.579 9.579 0 0 0 29.178 52.823 Q 29.556 52.538 29.86 52.24 A 5.883 5.883 0 0 0 29.9 52.2 A 3.444 3.444 0 0 0 30.387 51.595 A 2.706 2.706 0 0 0 30.7 50.9 L 31.2 51.7 Q 31.2 50.6 34.9 49 Q 36.466 48.258 37.387 47.686 A 9.85 9.85 0 0 0 37.75 47.45 Q 38.63 46.848 38.695 46.203 A 1.028 1.028 0 0 0 38.7 46.1 A 1.628 1.628 0 0 1 37.984 46.825 Q 37.004 47.376 34.886 47.399 A 17.185 17.185 0 0 1 34.7 47.4 A 3.991 3.991 0 0 1 34.15 47.365 Q 33.872 47.326 33.647 47.244 A 1.56 1.56 0 0 1 33.2 47 A 1.028 1.028 0 0 1 32.918 46.624 Q 32.754 46.274 32.713 45.701 A 5.683 5.683 0 0 1 32.7 45.3 A 9.188 9.188 0 0 1 32.755 44.388 Q 32.934 42.634 33.7 39.15 A 86.463 86.463 0 0 1 35.049 33.8 A 70.391 70.391 0 0 1 36 30.75 A 37.544 37.544 0 0 1 36.473 29.424 Q 37.217 27.469 37.813 26.748 A 1.434 1.434 0 0 1 38.2 26.4 L 40.6 19.9 L 41.4 17.8 L 43.8 9.5 A 3.11 3.11 0 0 1 44.088 9.102 Q 44.354 8.785 44.75 8.45 Q 45.219 8.053 45.35 7.734 A 0.618 0.618 0 0 0 45.4 7.5 Q 45.4 6.707 45.793 4.88 A 41.776 41.776 0 0 1 45.8 4.85 A 38.969 38.969 0 0 1 45.992 4.003 Q 46.274 2.826 46.5 2.3 Q 46.5 0.3 50.5 0.3 A 17.137 17.137 0 0 1 52.743 0.442 A 14.664 14.664 0 0 1 53.7 0.6 A 44.54 44.54 0 0 0 54.757 0.705 Q 55.772 0.794 56.498 0.8 A 12.637 12.637 0 0 0 56.6 0.8 Q 57.3 0.8 58.55 0.55 Q 59.8 0.3 60.4 0.3 Z M 35.5 50.5 L 33.8 52 A 35.238 35.238 0 0 1 32.767 52.994 Q 32.272 53.451 31.822 53.822 A 15.727 15.727 0 0 1 31.15 54.35 A 4.737 4.737 0 0 1 30.173 54.915 A 3.515 3.515 0 0 1 28.8 55.2 A 7.514 7.514 0 0 1 29.989 54.129 A 9.403 9.403 0 0 1 30.8 53.6 Q 31.4 53.2 32.05 52.6 A 5.703 5.703 0 0 0 32.826 51.728 A 5.004 5.004 0 0 0 33.1 51.3 A 4.976 4.976 0 0 0 32.69 51.462 Q 31.686 51.902 29.427 53.198 A 118.259 118.259 0 0 0 29.25 53.3 A 48.972 48.972 0 0 0 28.237 53.899 Q 26.314 55.069 26.019 55.565 A 0.55 0.55 0 0 0 26 55.6 L 26.8 56.4 L 28.1 55.2 L 28.1 56.8 L 31.2 55 Q 32 54.5 34.35 53.1 A 72.236 72.236 0 0 0 34.901 52.769 Q 36.644 51.709 36.698 51.512 A 0.045 0.045 0 0 0 36.7 51.5 L 36.6 51.1 Q 36.6 50.68 36.952 50.542 A 0.877 0.877 0 0 1 37.1 50.5 A 0.476 0.476 0 0 0 37.43 50.847 Q 37.582 50.9 37.8 50.9 L 38.2 50.9 A 0.207 0.207 0 0 1 38.013 50.79 Q 37.97 50.718 37.95 50.6 A 1.436 1.436 0 0 0 37.93 50.502 Q 37.882 50.3 37.8 50.3 A 0.567 0.567 0 0 1 37.954 49.922 Q 38.182 49.659 38.75 49.45 Q 39.598 49.138 39.769 48.626 A 0.827 0.827 0 0 0 39.8 48.5 L 44.9 45 L 45.2 44.9 A 1.277 1.277 0 0 1 45.463 45.019 Q 45.613 45.111 45.696 45.236 A 0.642 0.642 0 0 1 45.8 45.6 A 6.179 6.179 0 0 1 45.664 45.727 Q 45.001 46.334 41.265 49.679 A 6160.919 6160.919 0 0 1 39.9 50.9 L 38.2 52.5 Q 38.815 52.193 39.193 52.121 A 1.128 1.128 0 0 1 39.4 52.1 L 38.2 53.3 L 37.9 52.5 Q 37.805 52.5 37.261 53.669 A 41.812 41.812 0 0 0 37.2 53.8 A 2.472 2.472 0 0 1 36.371 54.769 Q 35.647 55.289 34.422 55.573 A 9.449 9.449 0 0 1 34.3 55.6 L 34.3 54.8 A 1.279 1.279 0 0 0 34.835 54.676 Q 35.031 54.586 35.233 54.431 A 3.261 3.261 0 0 0 35.55 54.15 A 4.721 4.721 0 0 1 35.822 53.897 Q 36.113 53.649 36.344 53.556 A 0.69 0.69 0 0 1 36.6 53.5 L 36.6 52.8 L 28 57.6 A 1.438 1.438 0 0 1 27.72 57.855 Q 27.177 58.249 25.9 58.7 Q 24.792 59.069 24.195 59.439 A 3.38 3.38 0 0 0 24.1 59.5 A 1.292 1.292 0 0 0 23.518 60.437 A 1.884 1.884 0 0 0 23.5 60.7 A 1.1 1.1 0 0 0 23.931 61.563 Q 24.452 62.004 25.6 62.25 A 27.783 27.783 0 0 0 26.834 62.487 Q 28.022 62.686 28.88 62.699 A 7.832 7.832 0 0 0 29 62.7 L 30.6 62.8 A 6.093 6.093 0 0 0 31.643 62.715 A 4.481 4.481 0 0 0 32.7 62.4 Q 32.619 62.319 32.604 62.106 A 1.484 1.484 0 0 1 32.6 62 A 1.076 1.076 0 0 1 32.731 61.521 Q 33.079 60.831 34.35 59.85 Q 36.1 58.5 38 57.25 Q 39.9 56 40.6 55.6 L 40.2 55.6 L 35.9 57.6 Q 35.558 57.771 33.83 58.671 A 1448.934 1448.934 0 0 0 33.2 59 Q 30.4 60.8 28.8 60.8 Q 29.027 60.573 29.282 60.232 A 8.982 8.982 0 0 0 29.45 60 A 6.63 6.63 0 0 0 29.627 59.735 Q 29.781 59.49 29.859 59.307 A 1.418 1.418 0 0 0 29.9 59.2 Q 30.8 58.8 31.6 58.45 Q 32.4 58.1 33.1 57.8 A 271.878 271.878 0 0 0 34.809 57.081 Q 37.238 56.05 38.85 55.3 A 23.266 23.266 0 0 0 42.998 52.801 L 43 52.8 A 7.212 7.212 0 0 0 43.578 51.983 Q 44.145 51.068 44.769 49.635 A 37.151 37.151 0 0 0 45.2 48.6 A 44.447 44.447 0 0 1 45.581 47.675 Q 46.125 46.4 46.5 45.8 A 0.662 0.662 0 0 1 46.514 45.688 Q 46.575 45.366 46.9 44.35 Q 47.188 43.45 47.269 42.732 A 4.774 4.774 0 0 0 47.3 42.2 Q 45.63 43.035 42.983 44.847 A 91.465 91.465 0 0 0 41.9 45.6 Q 37.7 48.3 36.6 48.9 Q 37.9 48.9 39 48.5 A 2.429 2.429 0 0 1 38.514 48.996 Q 38.029 49.375 37.251 49.68 A 8.08 8.08 0 0 1 37.2 49.7 A 22.354 22.354 0 0 0 36.64 49.923 Q 35.872 50.243 35.552 50.463 A 1.528 1.528 0 0 0 35.5 50.5 Z M 47.3 34.7 L 48.9 31.5 A 40.312 40.312 0 0 1 44.386 33.447 Q 42.015 34.312 39.271 35.034 A 73.22 73.22 0 0 1 37.4 35.5 L 37.1 35.9 A 6.966 6.966 0 0 0 36.944 36.303 Q 36.778 36.768 36.586 37.454 A 36.371 36.371 0 0 0 36.4 38.15 Q 36.094 39.337 35.905 40.142 A 40.107 40.107 0 0 0 35.8 40.6 L 36.3 40.6 Q 37.4 39.5 39.1 38.65 L 41.4 37.5 A 7.375 7.375 0 0 0 41.786 37.26 Q 42.34 36.895 43.256 36.204 A 73.772 73.772 0 0 0 43.85 35.75 Q 45.6 34.4 46.4 34.4 A 5.048 5.048 0 0 0 46.403 34.579 Q 46.412 34.828 46.447 34.942 A 0.417 0.417 0 0 0 46.45 34.95 L 46.5 35.1 A 0.431 0.431 0 0 1 46.445 35.3 Q 46.326 35.527 45.95 35.8 A 6.773 6.773 0 0 1 45.262 36.241 A 5.677 5.677 0 0 1 44.85 36.45 A 10.319 10.319 0 0 0 44.531 36.601 Q 44.228 36.752 44.028 36.882 A 2.8 2.8 0 0 0 44 36.9 A 25.024 25.024 0 0 0 42.889 37.412 Q 41.343 38.174 40.814 38.779 A 1.301 1.301 0 0 0 40.6 39.1 L 40.2 38.6 A 2.749 2.749 0 0 1 39.757 39.454 Q 39.518 39.774 39.173 40.083 A 6.358 6.358 0 0 1 38.65 40.5 Q 37.581 41.27 36.621 41.674 A 6.937 6.937 0 0 1 36.3 41.8 L 37.4 41.8 Q 37.02 42.104 36.122 42.407 A 13.714 13.714 0 0 1 35.5 42.6 L 35.5 45.2 Q 35.6 45.1 37.55 44 Q 39.5 42.9 41 41.8 A 0.18 0.18 0 0 1 41.067 41.815 Q 41.125 41.838 41.195 41.899 A 1.049 1.049 0 0 1 41.25 41.95 Q 41.4 42.1 41.4 42.2 Q 41.687 41.529 42.159 41.18 A 1.864 1.864 0 0 1 42.2 41.15 A 5.146 5.146 0 0 1 42.552 40.926 Q 42.967 40.683 43.56 40.418 A 16.507 16.507 0 0 1 43.6 40.4 Q 44.54 40.024 45.038 39.648 A 2.774 2.774 0 0 0 45.1 39.6 Q 45.6 39.2 45.7 38.3 Q 44.886 38.522 44.017 39.237 A 8.643 8.643 0 0 0 43.4 39.8 L 43.4 39.4 A 1.881 1.881 0 0 0 43.212 39.476 Q 43.029 39.56 42.785 39.705 A 9.214 9.214 0 0 0 42.55 39.85 Q 42.097 40.138 41.882 40.189 A 0.36 0.36 0 0 1 41.8 40.2 A 1.004 1.004 0 0 1 41.382 40.115 Q 41.162 40.016 41 39.8 A 0.453 0.453 0 0 1 41.269 39.491 Q 41.454 39.406 41.758 39.4 A 2.356 2.356 0 0 1 41.8 39.4 L 45.7 37.5 L 46.2 37.4 A 0.853 0.853 0 0 1 46.723 37.579 A 1.07 1.07 0 0 1 46.75 37.6 A 0.703 0.703 0 0 1 46.912 37.779 A 0.599 0.599 0 0 1 47 38.1 Q 47 39.7 44.45 41.5 A 19.954 19.954 0 0 1 42.675 42.626 Q 41.145 43.48 39.8 43.8 Q 38.4 44.2 37.35 45.2 A 25.602 25.602 0 0 1 37.101 45.434 Q 36.448 46.04 36.202 46.166 A 0.246 0.246 0 0 1 36.1 46.2 Q 37.3 46.2 38.4 45.7 A 13.141 13.141 0 0 0 39.146 45.329 Q 40.031 44.856 41.2 44.1 A 55.012 55.012 0 0 1 42.141 43.524 Q 43.048 42.982 43.707 42.647 A 14.624 14.624 0 0 1 43.8 42.6 L 43.8 43 A 12.172 12.172 0 0 0 45.599 42.086 Q 46.556 41.488 47.235 40.764 A 6.327 6.327 0 0 0 47.95 39.85 Q 49.2 37.9 49.2 34.7 L 49.6 34.7 A 4.257 4.257 0 0 1 49.893 33.169 A 5.227 5.227 0 0 1 50.1 32.7 A 0.284 0.284 0 0 0 49.993 32.732 Q 49.746 32.845 49.095 33.362 A 26.168 26.168 0 0 0 48.8 33.6 Q 47.854 34.374 47.426 34.63 A 1.927 1.927 0 0 1 47.3 34.7 Z M 15.7 17 L 16.6 17.8 A 7.778 7.778 0 0 0 16.538 17.526 Q 16.384 16.887 15.918 15.158 A 450.131 450.131 0 0 0 15.7 14.35 Q 14.9 11.4 13.8 7.9 A 16.404 16.404 0 0 0 13.624 7.454 Q 13.359 6.806 12.87 5.712 A 158.049 158.049 0 0 0 12.55 5 Q 11.766 3.267 11.493 2.828 A 0.778 0.778 0 0 0 11.4 2.7 A 1.019 1.019 0 0 0 11.072 2.489 Q 10.747 2.352 10.223 2.314 A 5.935 5.935 0 0 0 9.8 2.3 L 9.1 2.3 A 3.343 3.343 0 0 0 8.672 2.332 Q 8.221 2.391 7.576 2.559 A 19.667 19.667 0 0 0 6.9 2.75 A 5.581 5.581 0 0 0 6.362 2.939 Q 5.838 3.157 5.599 3.423 A 0.703 0.703 0 0 0 5.4 3.9 L 5.5 4.3 L 6.3 3.5 A 1.848 1.848 0 0 1 6.173 4.149 Q 5.984 4.653 5.514 5.224 A 6.448 6.448 0 0 1 5.45 5.3 A 89.291 89.291 0 0 0 5.071 5.749 Q 4.623 6.283 4.39 6.583 A 8.48 8.48 0 0 0 4.3 6.7 A 4.703 4.703 0 0 0 6.296 6.245 A 5.899 5.899 0 0 0 6.85 5.95 A 16.502 16.502 0 0 1 7.289 5.695 Q 7.971 5.314 8.32 5.226 A 0.756 0.756 0 0 1 8.5 5.2 A 1.534 1.534 0 0 1 8.191 6.097 Q 7.833 6.604 7.056 7.074 A 7.404 7.404 0 0 1 6.75 7.25 A 12.079 12.079 0 0 1 5.817 7.709 Q 4.879 8.118 4.173 8.186 A 2.839 2.839 0 0 1 3.9 8.2 L 3.9 9.1 A 3.345 3.345 0 0 0 3.964 9.77 Q 4.052 10.202 4.263 10.543 A 2.089 2.089 0 0 0 4.3 10.6 A 11.527 11.527 0 0 0 9.34 6 A 13.878 13.878 0 0 0 9.4 5.9 Q 9.3 5.6 9.3 5.2 Q 9.3 4.833 9.435 4.682 A 0.303 0.303 0 0 1 9.55 4.6 Q 9.74 4.524 10.131 4.506 A 5.783 5.783 0 0 1 10.4 4.5 A 8.105 8.105 0 0 0 10.412 4.952 Q 10.434 5.355 10.5 5.65 A 5.378 5.378 0 0 1 10.557 5.942 Q 10.58 6.081 10.591 6.201 A 2.254 2.254 0 0 1 10.6 6.4 A 1.647 1.647 0 0 1 10.471 7.02 Q 10.299 7.444 9.9 7.9 A 2.907 2.907 0 0 1 10.111 7.773 Q 10.345 7.645 10.686 7.498 A 11.405 11.405 0 0 1 10.8 7.45 A 11.463 11.463 0 0 1 11.155 7.308 Q 11.525 7.169 11.8 7.1 A 4.973 4.973 0 0 1 12.116 7.109 Q 12.643 7.143 12.8 7.3 A 0.472 0.472 0 0 1 12.897 7.452 Q 12.996 7.686 13 8.157 A 4.742 4.742 0 0 1 13 8.2 L 6.7 14.2 L 7.1 14.2 L 9.2 13.5 Q 10.7 13 11.4 12.6 L 11.5 13 A 0.775 0.775 0 0 1 11.324 13.456 Q 10.857 14.087 9.15 14.85 A 150.871 150.871 0 0 0 8.334 15.217 Q 6.835 15.898 6.372 16.158 A 2.996 2.996 0 0 0 6.3 16.2 A 7.463 7.463 0 0 0 6.643 17.225 Q 6.966 18.009 7.5 18.9 A 0.321 0.321 0 0 0 7.563 18.906 Q 8.07 18.906 9.15 17.45 A 75.18 75.18 0 0 0 11.048 14.776 A 67.839 67.839 0 0 0 11.3 14.4 A 63.581 63.581 0 0 1 11.631 13.908 Q 12.697 12.341 12.891 12.301 A 0.047 0.047 0 0 1 12.9 12.3 A 0.616 0.616 0 0 0 12.956 12.547 Q 13.034 12.727 13.224 12.924 A 2.239 2.239 0 0 0 13.25 12.95 Q 13.519 13.219 13.7 13.341 A 0.919 0.919 0 0 0 13.8 13.4 Q 13.716 14.328 13.311 14.935 A 2.334 2.334 0 0 1 13.15 15.15 A 10.058 10.058 0 0 1 12.789 15.551 Q 12.263 16.109 11.4 16.9 Q 10.7 17.5 10.05 18.2 A 4.897 4.897 0 0 0 9.402 19.067 A 4.161 4.161 0 0 0 9.1 19.7 Q 10.159 19.122 12.469 18.128 A 116.782 116.782 0 0 1 12.65 18.05 A 47.614 47.614 0 0 1 13.504 17.693 Q 15.195 17.007 15.69 17 A 0.714 0.714 0 0 1 15.7 17 Z M 48.9 7.9 L 48.9 8.3 Q 49.383 8.3 50.426 7.787 A 13.088 13.088 0 0 0 50.5 7.75 Q 51.6 7.2 52.1 7.1 L 52.2 7.4 Q 52.2 8.206 50.196 8.771 A 13.032 13.032 0 0 1 49.7 8.9 A 44.729 44.729 0 0 1 48.577 9.155 Q 46.958 9.5 46.2 9.5 A 61.212 61.212 0 0 0 45.106 12.502 Q 44.184 15.273 43.866 17.326 A 16.495 16.495 0 0 0 43.8 17.8 A 3.774 3.774 0 0 0 44.995 17.602 A 4.593 4.593 0 0 0 45 17.6 Q 45.332 17.489 45.511 17.317 A 0.656 0.656 0 0 0 45.7 17 L 51.3 14.2 L 51.7 13.7 Q 50.8 13.7 48.8 14.3 A 10.594 10.594 0 0 1 47.468 14.753 Q 46.766 14.938 46.122 14.985 A 5.885 5.885 0 0 1 45.7 15 A 3.324 3.324 0 0 1 45.8 14.47 Q 45.944 13.956 46.25 13.65 Q 46.699 13.201 47.598 12.701 A 8.958 8.958 0 0 1 47.6 12.7 Q 48.9 12 49.3 11.4 L 49.6 11.8 A 0.825 0.825 0 0 1 49.752 11.649 Q 50.159 11.313 51.535 10.492 A 79.418 79.418 0 0 1 52.2 10.1 A 98.163 98.163 0 0 0 53.208 9.483 Q 56.5 7.438 56.5 7 Q 55.181 7 53.591 7.611 A 13.411 13.411 0 0 0 52.9 7.9 L 52.9 7 A 2.676 2.676 0 0 0 53.63 6.894 A 3.544 3.544 0 0 0 54.15 6.7 A 115.902 115.902 0 0 0 54.413 6.578 Q 54.844 6.378 55 6.3 Q 56.4 5.5 57.2 5.5 A 0.18 0.18 0 0 1 57.267 5.515 Q 57.325 5.538 57.395 5.599 A 1.049 1.049 0 0 1 57.45 5.65 Q 57.6 5.8 57.6 5.9 Q 58.2 5.7 58.2 4.4 L 58.2 3.8 A 2.717 2.717 0 0 1 58.219 3.469 Q 58.241 3.294 58.286 3.143 A 1.615 1.615 0 0 1 58.3 3.1 A 0.635 0.635 0 0 1 58.435 2.866 Q 58.532 2.761 58.68 2.707 A 0.775 0.775 0 0 1 58.7 2.7 Q 57.2 2.7 55.9 3.4 Q 54.6 4.1 52.7 5.5 A 30.158 30.158 0 0 1 51.384 6.465 Q 50 7.419 48.9 7.9 Z M 16.9 28.8 L 16.6 28.4 Q 16.1 29.1 15 29.7 A 7.506 7.506 0 0 1 14.413 29.99 Q 13.815 30.251 13.364 30.292 A 1.804 1.804 0 0 1 13.2 30.3 A 2.073 2.073 0 0 1 13.043 30.294 Q 12.968 30.288 12.882 30.277 A 4.728 4.728 0 0 1 12.7 30.25 A 0.95 0.95 0 0 1 12.388 30.143 A 0.862 0.862 0 0 1 12.2 30 A 2.132 2.132 0 0 1 12.601 29.617 Q 13.339 29.047 15.112 28.228 A 46.549 46.549 0 0 1 16.3 27.7 Q 19.3 26.6 19.3 26.1 Q 19.3 25.674 18.612 23.039 A 170.818 170.818 0 0 0 18.35 22.05 Q 17.565 19.115 17.155 18.606 A 0.227 0.227 0 0 0 17 18.5 Q 16.226 18.5 14.417 20.127 A 27.406 27.406 0 0 0 13.8 20.7 Q 11.628 22.778 11.061 23.874 A 2.779 2.779 0 0 0 11 24 A 4.905 4.905 0 0 0 11.867 23.752 Q 12.293 23.589 12.757 23.34 A 11.089 11.089 0 0 0 13.5 22.9 Q 14.5 22.3 15.25 22 A 3.849 3.849 0 0 1 15.973 21.795 Q 16.322 21.73 16.724 21.709 A 7.415 7.415 0 0 1 17.1 21.7 Q 17.4 21.7 17.6 22.05 Q 17.8 22.4 17.8 22.8 Q 17.8 23.162 17.718 23.278 A 0.165 0.165 0 0 1 17.7 23.3 L 11.8 29.5 L 11.7 29.9 A 1.303 1.303 0 0 1 11.75 30.022 Q 11.884 30.391 12.25 31.65 Q 12.7 33.2 13 33.9 A 3.08 3.08 0 0 1 13.551 32.981 A 4.199 4.199 0 0 1 14.1 32.45 Q 14.9 31.8 15.8 31.2 A 14.064 14.064 0 0 0 16.788 30.553 Q 17.238 30.229 17.597 29.904 A 6.525 6.525 0 0 0 18.1 29.4 A 3.149 3.149 0 0 0 18.895 27.406 A 4.075 4.075 0 0 0 18.9 27.2 A 7.883 7.883 0 0 1 18.142 27.864 A 9.346 9.346 0 0 1 17.75 28.15 A 19.465 19.465 0 0 0 17.47 28.347 Q 17.126 28.594 16.962 28.742 A 1.578 1.578 0 0 0 16.9 28.8 Z M 55.6 12.6 L 54.8 13.4 L 47 17.3 A 0.451 0.451 0 0 1 46.911 17.404 Q 46.597 17.702 45.25 18.6 Q 43.6 19.7 42.3 21.35 A 6.052 6.052 0 0 0 41.021 24.731 A 7.729 7.729 0 0 0 41 25.3 A 17.089 17.089 0 0 1 41.313 25.13 Q 41.907 24.816 42.083 24.801 A 0.196 0.196 0 0 1 42.1 24.8 A 0.346 0.346 0 0 1 42.209 24.823 Q 42.448 24.907 42.991 25.294 A 11.961 11.961 0 0 1 43 25.3 A 3.457 3.457 0 0 0 41.642 25.559 A 3.26 3.26 0 0 0 40.4 26.5 Q 39.4 27.7 39.4 29.5 A 1.443 1.443 0 0 1 39.729 29.362 Q 40.272 29.2 41.3 29.2 L 42.2 29.2 A 0.18 0.18 0 0 1 42.133 29.185 Q 42.075 29.162 42.005 29.101 A 1.049 1.049 0 0 1 41.95 29.05 Q 41.8 28.9 41.8 28.8 A 0.377 0.377 0 0 1 41.93 28.605 Q 42.838 27.675 50.1 23.3 Q 49.6 23.3 49.1 23.45 Q 48.6 23.6 48.1 23.6 A 4.76 4.76 0 0 1 48.756 22.958 A 6.36 6.36 0 0 1 49.4 22.5 A 3.937 3.937 0 0 1 49.962 22.205 Q 50.283 22.071 50.587 22.024 A 2.075 2.075 0 0 1 50.9 22 A 1.237 1.237 0 0 1 51.581 22.188 Q 51.806 22.331 51.976 22.585 A 1.969 1.969 0 0 1 52.1 22.8 Q 52.391 22.218 53.387 20.179 A 1891.422 1891.422 0 0 0 53.45 20.05 Q 54.5 17.9 55.05 16 A 15.767 15.767 0 0 0 55.416 14.468 Q 55.554 13.717 55.589 13.042 A 8.673 8.673 0 0 0 55.6 12.6 Z M 16.6 42.2 L 22.9 35.5 A 6.535 6.535 0 0 0 22.261 35.698 Q 21.94 35.815 21.581 35.975 A 14.622 14.622 0 0 0 21 36.25 L 19.5 37 A 27.243 27.243 0 0 1 18.522 37.507 Q 16.903 38.3 16.2 38.3 Q 15.333 38.3 15.301 37.744 A 0.758 0.758 0 0 1 15.3 37.7 A 3.007 3.007 0 0 1 15.502 37.294 Q 15.695 36.966 16 36.6 A 3.961 3.961 0 0 1 16.259 36.317 Q 16.532 36.047 16.771 35.944 A 0.844 0.844 0 0 1 16.9 35.9 L 16.9 37.5 A 5.003 5.003 0 0 0 17.471 37.283 Q 18.466 36.843 20.2 35.75 A 22.46 22.46 0 0 0 20.981 35.237 Q 22.5 34.188 22.5 33.7 A 3.09 3.09 0 0 0 22.485 33.379 Q 22.451 33.061 22.345 32.889 A 0.399 0.399 0 0 0 22.1 32.7 L 17.7 36.3 L 17.7 35.1 Q 17.7 34.5 19.4 33.4 A 7.852 7.852 0 0 0 20.279 32.89 A 6.411 6.411 0 0 0 20.8 32.5 A 2.505 2.505 0 0 0 21.076 32.234 Q 21.4 31.867 21.4 31.5 Q 20.538 31.5 19.263 32.096 A 11.171 11.171 0 0 0 19.15 32.15 Q 17.862 32.77 15.89 33.983 A 75.176 75.176 0 0 0 15.7 34.1 Q 14.129 35.082 13.329 35.485 A 9.231 9.231 0 0 1 13.3 35.5 Q 13.484 36.144 13.838 37.721 A 145.697 145.697 0 0 1 13.9 38 Q 14.3 39.8 14.95 41 Q 15.339 41.718 15.853 42.006 A 1.502 1.502 0 0 0 16.6 42.2 Z M 24.7 52.1 L 24.7 50.3 Q 24.955 50.3 26.225 49.648 A 43.168 43.168 0 0 0 26.7 49.4 Q 28.308 48.549 28.395 48.145 A 0.212 0.212 0 0 0 28.4 48.1 L 28.4 47.7 Q 27.4 47.9 26.55 48.45 Q 25.979 48.82 25.25 49.392 A 33.462 33.462 0 0 0 24.5 50 A 16.151 16.151 0 0 1 23.451 50.872 Q 22.378 51.685 21.509 51.985 A 3.508 3.508 0 0 1 21.1 52.1 L 21.1 50.9 Q 20.926 50.987 20.639 51.49 A 7.283 7.283 0 0 0 20.55 51.65 A 15.25 15.25 0 0 0 20.309 52.116 Q 20.125 52.488 20 52.8 Q 20.3 53.6 21.05 55.25 A 35.059 35.059 0 0 0 21.315 55.821 Q 21.856 56.956 22.1 57.2 A 3.589 3.589 0 0 1 22.428 56.676 Q 22.812 56.157 23.475 55.551 A 13.992 13.992 0 0 1 23.7 55.35 Q 24.9 54.3 25.2 54 Q 27.673 51.991 28.235 50.937 A 1.183 1.183 0 0 0 28.4 50.4 Q 28.107 50.4 25.723 52.254 A 105.129 105.129 0 0 0 25.6 52.35 Q 23.172 54.244 22.913 54.864 A 0.522 0.522 0 0 0 22.9 54.9 A 4.225 4.225 0 0 1 22.216 54.575 A 3.148 3.148 0 0 1 21.6 54.1 Q 21.7 54 22.5 52.85 A 5.293 5.293 0 0 1 22.863 52.381 Q 23.262 51.927 23.635 51.776 A 0.966 0.966 0 0 1 24 51.7 Q 24.093 51.7 24.314 51.786 A 3.625 3.625 0 0 1 24.35 51.8 A 0.796 0.796 0 0 1 24.519 51.891 A 0.568 0.568 0 0 1 24.7 52.1 Z M 23.2 47.3 L 23.6 47.3 A 4.368 4.368 0 0 1 23.845 47.076 Q 24.275 46.708 25.118 46.108 A 43.959 43.959 0 0 1 25.2 46.05 Q 26.4 45.2 26.8 44.6 A 4.281 4.281 0 0 0 25.337 44.864 A 5.076 5.076 0 0 0 25 45 Q 24.1 45.4 23.3 45.9 A 20.981 20.981 0 0 1 22.548 46.358 Q 22.191 46.565 21.872 46.726 A 9.239 9.239 0 0 1 21.4 46.95 Q 20.6 47.3 19.7 47.3 L 20.1 46.6 L 19.3 46.9 A 3.228 3.228 0 0 1 19.541 46.221 Q 19.841 45.587 20.45 44.85 A 26.964 26.964 0 0 1 21.217 43.965 Q 21.596 43.545 22.042 43.079 A 61.056 61.056 0 0 1 23 42.1 Q 23.275 41.825 23.621 41.455 A 46.534 46.534 0 0 0 23.95 41.1 Q 24.5 40.5 24.6 40.3 A 5.486 5.486 0 0 0 24.222 40.484 Q 23.607 40.807 22.455 41.524 A 90.437 90.437 0 0 0 21.7 42 A 56.803 56.803 0 0 1 20.509 42.751 Q 18.113 44.219 17.3 44.3 Q 17.3 44.64 18.133 46.828 A 112.41 112.41 0 0 0 18.45 47.65 Q 19.6 50.6 20.1 51.7 A 8.03 8.03 0 0 1 20.524 50.684 Q 20.763 50.201 21.084 49.683 A 15.874 15.874 0 0 1 21.5 49.05 Q 22.235 47.984 22.809 47.539 A 1.822 1.822 0 0 1 23.2 47.3 Z M 40.6 30.8 L 40.2 30.3 Q 40.1 31.099 39.052 31.848 A 5.525 5.525 0 0 1 39.05 31.85 A 3.505 3.505 0 0 0 38.469 32.363 Q 38.124 32.749 37.985 33.189 A 2.02 2.02 0 0 0 37.9 33.6 A 8.346 8.346 0 0 0 39.847 32.795 A 10.492 10.492 0 0 0 40.85 32.15 Q 42.3 31.1 42.5 31.1 Q 43.8 30.6 45.85 29.25 Q 47.9 27.9 48.1 27.6 L 48.5 28 L 48.9 26.8 L 48.1 26.8 A 1.238 1.238 0 0 1 48.307 26.536 A 0.832 0.832 0 0 1 48.9 26.3 L 49.3 26.4 Q 49.661 26.219 50.308 25.998 A 18.518 18.518 0 0 1 50.45 25.95 Q 50.99 25.77 51.374 25.564 A 3.338 3.338 0 0 0 51.65 25.4 A 0.969 0.969 0 0 0 52.087 24.697 A 1.413 1.413 0 0 0 52.1 24.5 Q 52.1 23.988 51.971 23.767 A 0.301 0.301 0 0 0 51.7 23.6 Q 48.408 25.667 46.288 26.914 A 80.69 80.69 0 0 1 45.1 27.6 Q 42.8 28.9 42.6 29.2 Q 43.8 28.8 44.6 28.8 A 2.056 2.056 0 0 1 44.081 29.348 Q 43.522 29.768 42.55 30.05 A 23.116 23.116 0 0 0 41.927 30.24 Q 40.913 30.566 40.6 30.8 Z M 47.3 29.5 L 39.4 33.9 A 8.056 8.056 0 0 0 40.355 33.847 Q 41.052 33.763 41.6 33.55 Q 42.5 33.2 43.4 32.7 Q 44.255 32.225 44.839 31.93 A 20.975 20.975 0 0 1 44.9 31.9 A 4.811 4.811 0 0 1 45.78 31.57 Q 46.545 31.361 47.55 31.3 Q 49.2 31.2 50.1 31.1 A 0.761 0.761 0 0 0 50.59 30.801 Q 50.901 30.417 51.05 29.55 A 17.388 17.388 0 0 0 51.265 27.796 A 14.446 14.446 0 0 0 51.3 26.8 A 7.439 7.439 0 0 0 51.11 26.9 Q 50.649 27.147 49.544 27.787 A 213.92 213.92 0 0 0 49.35 27.9 Q 47.8 28.8 47.3 29.5 Z M 9.4 25.3 L 11.4 29.2 A 2.35 2.35 0 0 1 11.607 28.65 Q 11.994 27.892 13 26.85 A 663.458 663.458 0 0 1 13.49 26.343 Q 14.438 25.363 14.775 25.025 A 20.311 20.311 0 0 1 14.8 25 A 36.978 36.978 0 0 0 15.534 24.316 Q 16.863 23.04 16.987 22.585 A 0.326 0.326 0 0 0 17 22.5 L 16.9 22 A 1.254 1.254 0 0 0 16.694 22.08 Q 16.227 22.296 15.049 23.046 A 70.166 70.166 0 0 0 14.5 23.4 Q 12.509 24.913 11.09 25.221 A 3.254 3.254 0 0 1 10.4 25.3 A 0.749 0.749 0 0 1 10.264 25.286 Q 10.131 25.261 9.955 25.193 A 3.256 3.256 0 0 1 9.85 25.15 A 1.593 1.593 0 0 1 9.677 25.064 Q 9.473 24.945 9.4 24.8 L 9.4 25.3 Z M 48.1 13.5 L 48.7 13.6 Q 49.919 13.6 51.357 13.161 A 12.995 12.995 0 0 0 51.55 13.1 A 132.858 132.858 0 0 0 51.916 12.981 Q 53.125 12.588 53.3 12.5 A 5.731 5.731 0 0 1 53.581 12.398 Q 54.194 12.191 55.6 11.8 Q 55.88 11.38 56.086 10.716 A 8.221 8.221 0 0 0 56.25 10.1 Q 56.455 9.197 56.559 8.766 A 21.542 21.542 0 0 1 56.6 8.6 Q 55.7 8.6 54.5 9.35 Q 53.3 10.1 51.2 11.6 A 42.299 42.299 0 0 1 50.329 12.246 Q 48.658 13.449 48.142 13.498 A 0.443 0.443 0 0 1 48.1 13.5 Z M 20.5 28.4 L 20.1 28.4 Q 19.5 29 18.35 30.3 Q 17.301 31.486 16.294 32.256 A 10.194 10.194 0 0 1 16.1 32.4 A 5.61 5.61 0 0 1 15.432 32.822 Q 15.075 33.011 14.742 33.105 A 2.349 2.349 0 0 1 14.1 33.2 L 13.8 34.3 L 15.7 33.1 L 20.8 30.8 L 21.4 30.8 Q 21.4 30.386 21.194 29.663 A 11.487 11.487 0 0 0 21.1 29.35 A 5.316 5.316 0 0 0 20.988 29.029 Q 20.813 28.577 20.638 28.45 A 0.233 0.233 0 0 0 20.5 28.4 Z M 54.6 2.7 L 53.1 2.8 Q 52.531 2.8 52.412 2.351 A 0.833 0.833 0 0 1 52.4 2.3 Q 51.7 2.8 50.45 3.35 Q 49.43 3.799 48.776 3.881 A 2.21 2.21 0 0 1 48.5 3.9 Q 48.4 3.9 48.25 3.8 A 0.323 0.323 0 0 1 48.104 3.566 A 0.471 0.471 0 0 1 48.1 3.5 A 5.235 5.235 0 0 1 48.076 3.981 Q 48.022 4.559 47.85 5.35 A 17.433 17.433 0 0 0 47.729 5.953 Q 47.6 6.669 47.6 7.1 Q 48.8 7.1 50 6.5 A 11.149 11.149 0 0 0 50.942 5.966 Q 51.442 5.651 51.985 5.25 A 23.326 23.326 0 0 0 52.7 4.7 A 180.121 180.121 0 0 1 53.428 4.217 Q 54.875 3.263 55.2 3.1 Q 55.103 2.71 54.625 2.7 A 1.213 1.213 0 0 0 54.6 2.7 Z M 14.6 18.1 L 13 18.9 L 13 18.5 A 2.393 2.393 0 0 1 12.643 18.886 Q 12.022 19.439 10.7 20.1 A 13.292 13.292 0 0 0 10.119 20.408 Q 9.528 20.741 9.15 21.05 A 1.468 1.468 0 0 0 8.613 22.059 A 2.108 2.108 0 0 0 8.6 22.3 L 8.6 22.8 Q 8.6 23.7 9.1 24 A 4.129 4.129 0 0 1 9.283 23.833 Q 9.731 23.441 11.06 22.366 A 312.312 312.312 0 0 1 11.7 21.85 A 12.828 12.828 0 0 0 12.971 20.689 Q 14.188 19.406 14.6 18.1 Z M 17.4 43 L 23.6 39.8 A 0.692 0.692 0 0 0 23.894 39.536 Q 23.97 39.408 23.992 39.239 A 1.1 1.1 0 0 0 24 39.1 A 2.779 2.779 0 0 0 23.975 38.719 Q 23.939 38.458 23.85 38.25 A 1.25 1.25 0 0 0 23.706 38.003 Q 23.541 37.781 23.248 37.539 A 4.41 4.41 0 0 0 23.2 37.5 Q 17.9 40.6 17.4 43 Z M 33.5 56.4 L 31.8 57.6 Q 29.389 59.269 28.182 60.595 A 9.097 9.097 0 0 0 28 60.8 L 27.9 60.1 A 2.071 2.071 0 0 1 28.329 58.847 A 3.215 3.215 0 0 1 28.85 58.3 Q 29.8 57.5 31.1 56.8 Q 32.306 56.151 32.995 55.674 A 8.58 8.58 0 0 0 33.1 55.6 A 1.854 1.854 0 0 0 33.118 55.869 Q 33.184 56.321 33.5 56.4 Z M 5 12.3 A 4.854 4.854 0 0 0 5.023 12.791 Q 5.126 13.8 5.7 13.8 Q 6.043 13.8 7.709 12.146 A 56.549 56.549 0 0 0 8.3 11.55 A 44.409 44.409 0 0 0 9.051 10.764 Q 10.463 9.248 10.592 8.739 A 0.478 0.478 0 0 0 10.6 8.7 A 2.868 2.868 0 0 0 9.846 8.815 Q 8.781 9.108 7.2 10.15 Q 5 11.6 5 12.3 Z M 28 46.6 A 1.668 1.668 0 0 0 27.961 46.258 Q 27.887 45.907 27.674 45.452 A 6.65 6.65 0 0 0 27.6 45.3 Q 25.28 46.761 22.886 49.256 A 38.182 38.182 0 0 0 22.1 50.1 A 4.238 4.238 0 0 1 22.535 49.78 Q 23.263 49.305 24.687 48.644 A 42.44 42.44 0 0 1 25 48.5 A 48.669 48.669 0 0 0 25.943 48.017 Q 27.624 47.13 27.931 46.746 A 0.254 0.254 0 0 0 28 46.6 Z M 51.334 17.127 A 4.805 4.805 0 0 0 50.8 17.1 A 1.948 1.948 0 0 0 50.8 17.122 A 1.635 1.635 0 0 0 51.3 18.3 A 0.282 0.282 0 0 1 51.3 18.31 Q 51.283 18.81 49.5 19.8 Q 48.7 20.2 48 20.7 Q 47.3 21.2 47.3 21.7 A 3.319 3.319 0 0 1 47.33 21.685 Q 47.638 21.535 49.95 20.45 Q 52.4 19.3 52.4 17.9 A 0.609 0.609 0 0 0 52.136 17.382 Q 51.869 17.187 51.334 17.127 Z M 24.3 56.4 L 24.8 56.4 A 5.268 5.268 0 0 1 24.325 56.923 Q 23.763 57.459 23.2 57.6 L 23.6 56.8 A 2.378 2.378 0 0 0 22.282 58.493 A 3.739 3.739 0 0 0 22.2 59.3 A 0.134 0.134 0 0 0 22.246 59.284 Q 22.447 59.185 23.402 58.501 A 90.393 90.393 0 0 0 23.75 58.25 A 164.704 164.704 0 0 0 24.378 57.794 Q 25.097 57.267 25.49 56.964 A 14.865 14.865 0 0 0 25.7 56.8 A 0.259 0.259 0 0 0 25.692 56.753 Q 25.645 56.547 25.318 55.556 A 131.441 131.441 0 0 0 25.2 55.2 A 3.653 3.653 0 0 0 24.828 55.481 Q 24.3 55.941 24.3 56.4 Z M 26.4 43.4 L 25.7 41.4 A 81.006 81.006 0 0 1 25.272 41.719 Q 24.633 42.191 23.773 42.811 A 236.196 236.196 0 0 1 23.65 42.9 A 15.34 15.34 0 0 0 21.369 44.925 A 16.854 16.854 0 0 0 21.3 45 A 0.529 0.529 0 0 0 21.375 45.061 Q 21.476 45.13 21.65 45.2 Q 21.852 45.281 22.022 45.296 A 0.862 0.862 0 0 0 22.1 45.3 Q 22.4 45.3 24.4 44.3 L 25.3 43.85 A 7.832 7.832 0 0 1 25.964 43.557 A 9.433 9.433 0 0 1 26.4 43.4 Z M 2.7 1.9 Q 2.7 4.5 3.5 5.5 A 12.778 12.778 0 0 0 3.594 5.356 Q 3.821 5.005 4.356 4.151 A 352.149 352.149 0 0 0 4.45 4 A 13.346 13.346 0 0 1 4.86 3.38 Q 5.284 2.78 5.654 2.43 A 3.141 3.141 0 0 1 5.8 2.3 A 6.771 6.771 0 0 0 4.802 2.056 Q 3.888 1.9 2.7 1.9 Z M 44.027 22.915 A 2.496 2.496 0 0 0 44 23.3 A 2.784 2.784 0 0 0 44.284 23.285 Q 45.056 23.206 45.9 22.7 A 3.644 3.644 0 0 0 45.988 22.645 Q 46.29 22.453 46.503 22.23 A 1.742 1.742 0 0 0 47 21.2 A 1.508 1.508 0 0 1 46.884 21.278 Q 46.48 21.527 45.7 21.7 Q 45.081 21.838 44.699 22.022 A 1.811 1.811 0 0 0 44.4 22.2 A 0.873 0.873 0 0 0 44.121 22.571 Q 44.058 22.723 44.027 22.915 Z M 40.6 39.8 L 40.7 40.2 A 0.709 0.709 0 0 1 40.441 40.745 Q 40.213 40.948 39.785 41.089 A 3.389 3.389 0 0 1 39.75 41.1 A 8.94 8.94 0 0 1 39.19 41.258 Q 38.641 41.393 38.241 41.4 A 2.474 2.474 0 0 1 38.2 41.4 A 2.896 2.896 0 0 1 38.662 40.925 Q 39.183 40.489 40.059 40.054 A 13.908 13.908 0 0 1 40.6 39.8 Z M 49.6 18.1 L 49.6 18.5 A 16.234 16.234 0 0 0 49.115 18.589 Q 48.898 18.632 48.657 18.685 A 32.847 32.847 0 0 0 48.15 18.8 Q 47.315 18.996 46.915 19.096 A 28.946 28.946 0 0 0 46.9 19.1 A 0.489 0.489 0 0 1 47.073 18.735 Q 47.254 18.566 47.626 18.441 A 3.795 3.795 0 0 1 47.95 18.35 Q 48.895 18.125 49.475 18.103 A 3.219 3.219 0 0 1 49.6 18.1 Z" vector-effect="non-scaling-stroke"/></g></svg>